<svg viewBox="0 0 64 64" xml:space="preserve" xmlns="http://www.w3.org/2000/svg"><path d="M12.1 38 7.7 16.6c-.4-2.2 1-4.3 3.2-4.7l39.3-7.4c2.2-.4 4.3 1 4.7 3.2l3.5 18.7c.2 1.1-.8 3.3-1.3 4.1 0 0-.3.6-.8.6s-42.7 7.6-42.7 7.6l-1.5-.7z" fill="#7acc96" class="fill-7abe90"></path><path d="M13.5 23.8c-4.1 0-7.5 1-7.5 2.2v24c0 1.2 3.3 2.2 7.5 2.2s7.5-1 7.5-2.2V26c-.1-1.2-3.4-2.2-7.5-2.2z" fill="#e6bb57" class="fill-f8b319"></path><ellipse cx="13.5" cy="26" fill="none" rx="7.5" ry="2.2" stroke="#31404f" stroke-linecap="round" stroke-linejoin="round" stroke-miterlimit="10" stroke-width="2" class="stroke-2c3e50"></ellipse><path d="M20.9 30c0 1.2-3.3 2.2-7.5 2.2S6 31.2 6 30M20.9 34c0 1.2-3.3 2.2-7.5 2.2S6 35.2 6 34M20.9 38c0 1.2-3.3 2.2-7.5 2.2S6 39.2 6 38M20.9 42c0 1.2-3.3 2.2-7.5 2.2S6 43.2 6 42M20.9 46c0 1.2-3.3 2.2-7.5 2.2S6 47.2 6 46" fill="none" stroke="#31404f" stroke-linecap="round" stroke-linejoin="round" stroke-miterlimit="10" stroke-width="2" class="stroke-2c3e50"></path><path d="M20.9 26v24c0 1.2-3.3 2.2-7.5 2.2S6 51.2 6 50V26" fill="none" stroke="#31404f" stroke-linecap="round" stroke-linejoin="round" stroke-miterlimit="10" stroke-width="2" class="stroke-2c3e50"></path><path d="M51.7 31.8c-3.7 0-7.5 1-7.5 2.2v24c0 1.2 3.3 2.2 7.5 2.2 4.1 0 7.5-1 7.5-2.2V34c-.1-1.6-3.9-2.3-7.5-2.2z" fill="#e6bb57" class="fill-f8b319"></path><path d="M59.2 34c.1 1.2-3.3 2.2-7.5 2.2s-7.5-1-7.5-2.2 3.7-2.2 7.5-2.2c3.6-.1 7.4.6 7.5 2.2zM59.2 38c0 1.2-3.3 2.2-7.5 2.2s-7.5-1-7.5-2.2M59.2 42c0 1.2-3.3 2.2-7.5 2.2s-7.5-1-7.5-2.2M59.2 46c0 1.2-3.3 2.2-7.5 2.2s-7.5-1-7.5-2.2M59.2 50c0 1.2-3.3 2.2-7.5 2.2s-7.5-1-7.5-2.2M59.2 54c0 1.2-3.3 2.2-7.5 2.2s-7.5-1-7.5-2.2" fill="none" stroke="#31404f" stroke-linecap="round" stroke-linejoin="round" stroke-miterlimit="10" stroke-width="2" class="stroke-2c3e50"></path><path d="M59.2 34v24c0 1.2-3.3 2.2-7.5 2.2s-7.5-1-7.5-2.2V34" fill="none" stroke="#31404f" stroke-linecap="round" stroke-linejoin="round" stroke-miterlimit="10" stroke-width="2" class="stroke-2c3e50"></path><path d="M32 40.9c-4.1 0-7.5 1-7.5 2.2v16c0 1.2 3.3 2.2 7.5 2.2s7.5-1 7.5-2.2v-16c0-1.2-3.4-2.2-7.5-2.2z" fill="#deca8c" class="fill-ffd766"></path><ellipse cx="32" cy="43.1" fill="none" rx="7.5" ry="2.2" stroke="#31404f" stroke-linecap="round" stroke-linejoin="round" stroke-miterlimit="10" stroke-width="2" class="stroke-2c3e50"></ellipse><path d="M39.5 47.1c0 1.2-3.3 2.2-7.5 2.2s-7.5-1-7.5-2.2M39.5 51.1c0 1.2-3.3 2.2-7.5 2.2s-7.5-1-7.5-2.2M39.5 55.1c0 1.2-3.3 2.2-7.5 2.2s-7.5-1-7.5-2.2" fill="none" stroke="#31404f" stroke-linecap="round" stroke-linejoin="round" stroke-miterlimit="10" stroke-width="2" class="stroke-2c3e50"></path><path d="M39.5 43.1v16.1-.1c0 1.2-3.3 2.2-7.5 2.2s-7.5-1-7.5-2.2v.1-16.1M8.6 21.5l-.9-4.9c-.4-2.2 1-4.3 3.2-4.7l39.3-7.4c2.2-.4 4.3 1 4.7 3.2l3.5 18.7c.2 1.1-.1 2.2-.6 3M41 33.7l-16.9 3.2" fill="none" stroke="#31404f" stroke-linecap="round" stroke-linejoin="round" stroke-miterlimit="10" stroke-width="2" class="stroke-2c3e50"></path><path d="M37.4 16.3s-.9-2.1-5.6-1.2c-3.6.7-4.8 2.9-4.5 4.7.3 1.7 2.6 2.6 5.7 2 4-.8 5.4.4 5.7 2 .4 2.2-1.8 4.1-4.5 4.7-2.7.5-5.1-.6-5.6-1.2M31.3 12.5l3.4 18" fill="none" stroke="#31404f" stroke-linecap="round" stroke-linejoin="round" stroke-miterlimit="10" stroke-width="2" class="stroke-2c3e50"></path></svg>